<?xml version="1.0" encoding="utf-8" standalone="no"?>
<!DOCTYPE svg PUBLIC "-//W3C//DTD SVG 1.1//EN"
  "http://www.w3.org/Graphics/SVG/1.1/DTD/svg11.dtd">
<!-- Created with matplotlib (http://matplotlib.org/) -->
<svg height="345pt" version="1.1" viewBox="0 0 460 345" width="460pt" xmlns="http://www.w3.org/2000/svg" xmlns:xlink="http://www.w3.org/1999/xlink">
 <defs>
  <style type="text/css">
*{stroke-linecap:butt;stroke-linejoin:round;}
  </style>
 </defs>
 <g id="figure_1">
  <g id="patch_1">
   <path d="M 0 345.6 
L 460.8 345.6 
L 460.8 0 
L 0 0 
z
" style="fill:#ffffff;"/>
  </g>
  <g id="axes_1">
   <g id="patch_2">
    <path d="M 57.6 148.293818 
L 414.72 148.293818 
L 414.72 41.472 
L 57.6 41.472 
z
" style="fill:#ffffff;"/>
   </g>
   <g id="matplotlib.axis_1">
    <g id="xtick_1">
     <g id="line2d_1">
      <defs>
       <path d="M 0 0 
L 0 3.5 
" id="mf06cfdf67b" style="stroke:#000000;stroke-width:0.8;"/>
      </defs>
      <g>
       <use style="stroke:#000000;stroke-width:0.8;" x="67.207124" xlink:href="#mf06cfdf67b" y="148.293818"/>
      </g>
     </g>
    </g>
    <g id="xtick_2">
     <g id="line2d_2">
      <g>
       <use style="stroke:#000000;stroke-width:0.8;" x="133.463154" xlink:href="#mf06cfdf67b" y="148.293818"/>
      </g>
     </g>
    </g>
    <g id="xtick_3">
     <g id="line2d_3">
      <g>
       <use style="stroke:#000000;stroke-width:0.8;" x="153.339963" xlink:href="#mf06cfdf67b" y="148.293818"/>
      </g>
     </g>
    </g>
    <g id="xtick_4">
     <g id="line2d_4">
      <g>
       <use style="stroke:#000000;stroke-width:0.8;" x="193.093581" xlink:href="#mf06cfdf67b" y="148.293818"/>
      </g>
     </g>
    </g>
    <g id="xtick_5">
     <g id="line2d_5">
      <g>
       <use style="stroke:#000000;stroke-width:0.8;" x="265.975213" xlink:href="#mf06cfdf67b" y="148.293818"/>
      </g>
     </g>
    </g>
    <g id="xtick_6">
     <g id="line2d_6">
      <g>
       <use style="stroke:#000000;stroke-width:0.8;" x="332.231243" xlink:href="#mf06cfdf67b" y="148.293818"/>
      </g>
     </g>
    </g>
    <g id="xtick_7">
     <g id="line2d_7">
      <g>
       <use style="stroke:#000000;stroke-width:0.8;" x="398.487273" xlink:href="#mf06cfdf67b" y="148.293818"/>
      </g>
     </g>
    </g>
   </g>
   <g id="matplotlib.axis_2">
    <g id="ytick_1">
     <g id="line2d_8">
      <defs>
       <path d="M 0 0 
L -3.5 0 
" id="ma26cd1d9f2" style="stroke:#000000;stroke-width:0.8;"/>
      </defs>
      <g>
       <use style="stroke:#000000;stroke-width:0.8;" x="57.6" xlink:href="#ma26cd1d9f2" y="131.183823"/>
      </g>
     </g>
     <g id="text_1">
      <!-- 0.80 -->
      <defs>
       <path d="M 31.78125 66.40625 
Q 24.171875 66.40625 20.328125 58.90625 
Q 16.5 51.421875 16.5 36.375 
Q 16.5 21.390625 20.328125 13.890625 
Q 24.171875 6.390625 31.78125 6.390625 
Q 39.453125 6.390625 43.28125 13.890625 
Q 47.125 21.390625 47.125 36.375 
Q 47.125 51.421875 43.28125 58.90625 
Q 39.453125 66.40625 31.78125 66.40625 
M 31.78125 74.21875 
Q 44.046875 74.21875 50.515625 64.515625 
Q 56.984375 54.828125 56.984375 36.375 
Q 56.984375 17.96875 50.515625 8.265625 
Q 44.046875 -1.421875 31.78125 -1.421875 
Q 19.53125 -1.421875 13.0625 8.265625 
Q 6.59375 17.96875 6.59375 36.375 
Q 6.59375 54.828125 13.0625 64.515625 
Q 19.53125 74.21875 31.78125 74.21875 
" id="DejaVuSans-30"/>
       <path d="M 10.6875 12.40625 
L 21 12.40625 
L 21 0 
L 10.6875 0 
z
" id="DejaVuSans-2e"/>
       <path d="M 31.78125 34.625 
Q 24.75 34.625 20.71875 30.859375 
Q 16.703125 27.09375 16.703125 20.515625 
Q 16.703125 13.921875 20.71875 10.15625 
Q 24.75 6.390625 31.78125 6.390625 
Q 38.8125 6.390625 42.859375 10.171875 
Q 46.921875 13.96875 46.921875 20.515625 
Q 46.921875 27.09375 42.890625 30.859375 
Q 38.875 34.625 31.78125 34.625 
M 21.921875 38.8125 
Q 15.578125 40.375 12.03125 44.71875 
Q 8.5 49.078125 8.5 55.328125 
Q 8.5 64.0625 14.71875 69.140625 
Q 20.953125 74.21875 31.78125 74.21875 
Q 42.671875 74.21875 48.875 69.140625 
Q 55.078125 64.0625 55.078125 55.328125 
Q 55.078125 49.078125 51.53125 44.71875 
Q 48 40.375 41.703125 38.8125 
Q 48.828125 37.15625 52.796875 32.3125 
Q 56.78125 27.484375 56.78125 20.515625 
Q 56.78125 9.90625 50.3125 4.234375 
Q 43.84375 -1.421875 31.78125 -1.421875 
Q 19.734375 -1.421875 13.25 4.234375 
Q 6.78125 9.90625 6.78125 20.515625 
Q 6.78125 27.484375 10.78125 32.3125 
Q 14.796875 37.15625 21.921875 38.8125 
M 18.3125 54.390625 
Q 18.3125 48.734375 21.84375 45.5625 
Q 25.390625 42.390625 31.78125 42.390625 
Q 38.140625 42.390625 41.71875 45.5625 
Q 45.3125 48.734375 45.3125 54.390625 
Q 45.3125 60.0625 41.71875 63.234375 
Q 38.140625 66.40625 31.78125 66.40625 
Q 25.390625 66.40625 21.84375 63.234375 
Q 18.3125 60.0625 18.3125 54.390625 
" id="DejaVuSans-38"/>
      </defs>
      <g transform="translate(28.334375 134.983041)scale(0.1 -0.1)">
       <use xlink:href="#DejaVuSans-30"/>
       <use x="63.623047" xlink:href="#DejaVuSans-2e"/>
       <use x="95.410156" xlink:href="#DejaVuSans-38"/>
       <use x="159.033203" xlink:href="#DejaVuSans-30"/>
      </g>
     </g>
    </g>
    <g id="ytick_2">
     <g id="line2d_9">
      <g>
       <use style="stroke:#000000;stroke-width:0.8;" x="57.6" xlink:href="#ma26cd1d9f2" y="103.179486"/>
      </g>
     </g>
     <g id="text_2">
      <!-- 0.85 -->
      <defs>
       <path d="M 10.796875 72.90625 
L 49.515625 72.90625 
L 49.515625 64.59375 
L 19.828125 64.59375 
L 19.828125 46.734375 
Q 21.96875 47.46875 24.109375 47.828125 
Q 26.265625 48.1875 28.421875 48.1875 
Q 40.625 48.1875 47.75 41.5 
Q 54.890625 34.8125 54.890625 23.390625 
Q 54.890625 11.625 47.5625 5.09375 
Q 40.234375 -1.421875 26.90625 -1.421875 
Q 22.3125 -1.421875 17.546875 -0.640625 
Q 12.796875 0.140625 7.71875 1.703125 
L 7.71875 11.625 
Q 12.109375 9.234375 16.796875 8.0625 
Q 21.484375 6.890625 26.703125 6.890625 
Q 35.15625 6.890625 40.078125 11.328125 
Q 45.015625 15.765625 45.015625 23.390625 
Q 45.015625 31 40.078125 35.4375 
Q 35.15625 39.890625 26.703125 39.890625 
Q 22.75 39.890625 18.8125 39.015625 
Q 14.890625 38.140625 10.796875 36.28125 
z
" id="DejaVuSans-35"/>
      </defs>
      <g transform="translate(28.334375 106.978705)scale(0.1 -0.1)">
       <use xlink:href="#DejaVuSans-30"/>
       <use x="63.623047" xlink:href="#DejaVuSans-2e"/>
       <use x="95.410156" xlink:href="#DejaVuSans-38"/>
       <use x="159.033203" xlink:href="#DejaVuSans-35"/>
      </g>
     </g>
    </g>
    <g id="ytick_3">
     <g id="line2d_10">
      <g>
       <use style="stroke:#000000;stroke-width:0.8;" x="57.6" xlink:href="#ma26cd1d9f2" y="75.17515"/>
      </g>
     </g>
     <g id="text_3">
      <!-- 0.90 -->
      <defs>
       <path d="M 10.984375 1.515625 
L 10.984375 10.5 
Q 14.703125 8.734375 18.5 7.8125 
Q 22.3125 6.890625 25.984375 6.890625 
Q 35.75 6.890625 40.890625 13.453125 
Q 46.046875 20.015625 46.78125 33.40625 
Q 43.953125 29.203125 39.59375 26.953125 
Q 35.25 24.703125 29.984375 24.703125 
Q 19.046875 24.703125 12.671875 31.3125 
Q 6.296875 37.9375 6.296875 49.421875 
Q 6.296875 60.640625 12.9375 67.421875 
Q 19.578125 74.21875 30.609375 74.21875 
Q 43.265625 74.21875 49.921875 64.515625 
Q 56.59375 54.828125 56.59375 36.375 
Q 56.59375 19.140625 48.40625 8.859375 
Q 40.234375 -1.421875 26.421875 -1.421875 
Q 22.703125 -1.421875 18.890625 -0.6875 
Q 15.09375 0.046875 10.984375 1.515625 
M 30.609375 32.421875 
Q 37.25 32.421875 41.125 36.953125 
Q 45.015625 41.5 45.015625 49.421875 
Q 45.015625 57.28125 41.125 61.84375 
Q 37.25 66.40625 30.609375 66.40625 
Q 23.96875 66.40625 20.09375 61.84375 
Q 16.21875 57.28125 16.21875 49.421875 
Q 16.21875 41.5 20.09375 36.953125 
Q 23.96875 32.421875 30.609375 32.421875 
" id="DejaVuSans-39"/>
      </defs>
      <g transform="translate(28.334375 78.974369)scale(0.1 -0.1)">
       <use xlink:href="#DejaVuSans-30"/>
       <use x="63.623047" xlink:href="#DejaVuSans-2e"/>
       <use x="95.410156" xlink:href="#DejaVuSans-39"/>
       <use x="159.033203" xlink:href="#DejaVuSans-30"/>
      </g>
     </g>
    </g>
    <g id="ytick_4">
     <g id="line2d_11">
      <g>
       <use style="stroke:#000000;stroke-width:0.8;" x="57.6" xlink:href="#ma26cd1d9f2" y="47.170814"/>
      </g>
     </g>
     <g id="text_4">
      <!-- 0.95 -->
      <g transform="translate(28.334375 50.970032)scale(0.1 -0.1)">
       <use xlink:href="#DejaVuSans-30"/>
       <use x="63.623047" xlink:href="#DejaVuSans-2e"/>
       <use x="95.410156" xlink:href="#DejaVuSans-39"/>
       <use x="159.033203" xlink:href="#DejaVuSans-35"/>
      </g>
     </g>
    </g>
    <g id="text_5">
     <!-- MAE (avg) -->
     <defs>
      <path d="M 9.8125 72.90625 
L 24.515625 72.90625 
L 43.109375 23.296875 
L 61.8125 72.90625 
L 76.515625 72.90625 
L 76.515625 0 
L 66.890625 0 
L 66.890625 64.015625 
L 48.09375 14.015625 
L 38.1875 14.015625 
L 19.390625 64.015625 
L 19.390625 0 
L 9.8125 0 
z
" id="DejaVuSans-4d"/>
      <path d="M 34.1875 63.1875 
L 20.796875 26.90625 
L 47.609375 26.90625 
z
M 28.609375 72.90625 
L 39.796875 72.90625 
L 67.578125 0 
L 57.328125 0 
L 50.6875 18.703125 
L 17.828125 18.703125 
L 11.1875 0 
L 0.78125 0 
z
" id="DejaVuSans-41"/>
      <path d="M 9.8125 72.90625 
L 55.90625 72.90625 
L 55.90625 64.59375 
L 19.671875 64.59375 
L 19.671875 43.015625 
L 54.390625 43.015625 
L 54.390625 34.71875 
L 19.671875 34.71875 
L 19.671875 8.296875 
L 56.78125 8.296875 
L 56.78125 0 
L 9.8125 0 
z
" id="DejaVuSans-45"/>
      <path id="DejaVuSans-20"/>
      <path d="M 31 75.875 
Q 24.46875 64.65625 21.28125 53.65625 
Q 18.109375 42.671875 18.109375 31.390625 
Q 18.109375 20.125 21.3125 9.0625 
Q 24.515625 -2 31 -13.1875 
L 23.1875 -13.1875 
Q 15.875 -1.703125 12.234375 9.375 
Q 8.59375 20.453125 8.59375 31.390625 
Q 8.59375 42.28125 12.203125 53.3125 
Q 15.828125 64.359375 23.1875 75.875 
z
" id="DejaVuSans-28"/>
      <path d="M 34.28125 27.484375 
Q 23.390625 27.484375 19.1875 25 
Q 14.984375 22.515625 14.984375 16.5 
Q 14.984375 11.71875 18.140625 8.90625 
Q 21.296875 6.109375 26.703125 6.109375 
Q 34.1875 6.109375 38.703125 11.40625 
Q 43.21875 16.703125 43.21875 25.484375 
L 43.21875 27.484375 
z
M 52.203125 31.203125 
L 52.203125 0 
L 43.21875 0 
L 43.21875 8.296875 
Q 40.140625 3.328125 35.546875 0.953125 
Q 30.953125 -1.421875 24.3125 -1.421875 
Q 15.921875 -1.421875 10.953125 3.296875 
Q 6 8.015625 6 15.921875 
Q 6 25.140625 12.171875 29.828125 
Q 18.359375 34.515625 30.609375 34.515625 
L 43.21875 34.515625 
L 43.21875 35.40625 
Q 43.21875 41.609375 39.140625 45 
Q 35.0625 48.390625 27.6875 48.390625 
Q 23 48.390625 18.546875 47.265625 
Q 14.109375 46.140625 10.015625 43.890625 
L 10.015625 52.203125 
Q 14.9375 54.109375 19.578125 55.046875 
Q 24.21875 56 28.609375 56 
Q 40.484375 56 46.34375 49.84375 
Q 52.203125 43.703125 52.203125 31.203125 
" id="DejaVuSans-61"/>
      <path d="M 2.984375 54.6875 
L 12.5 54.6875 
L 29.59375 8.796875 
L 46.6875 54.6875 
L 56.203125 54.6875 
L 35.6875 0 
L 23.484375 0 
z
" id="DejaVuSans-76"/>
      <path d="M 45.40625 27.984375 
Q 45.40625 37.75 41.375 43.109375 
Q 37.359375 48.484375 30.078125 48.484375 
Q 22.859375 48.484375 18.828125 43.109375 
Q 14.796875 37.75 14.796875 27.984375 
Q 14.796875 18.265625 18.828125 12.890625 
Q 22.859375 7.515625 30.078125 7.515625 
Q 37.359375 7.515625 41.375 12.890625 
Q 45.40625 18.265625 45.40625 27.984375 
M 54.390625 6.78125 
Q 54.390625 -7.171875 48.1875 -13.984375 
Q 42 -20.796875 29.203125 -20.796875 
Q 24.46875 -20.796875 20.265625 -20.09375 
Q 16.0625 -19.390625 12.109375 -17.921875 
L 12.109375 -9.1875 
Q 16.0625 -11.328125 19.921875 -12.34375 
Q 23.78125 -13.375 27.78125 -13.375 
Q 36.625 -13.375 41.015625 -8.765625 
Q 45.40625 -4.15625 45.40625 5.171875 
L 45.40625 9.625 
Q 42.625 4.78125 38.28125 2.390625 
Q 33.9375 0 27.875 0 
Q 17.828125 0 11.671875 7.65625 
Q 5.515625 15.328125 5.515625 27.984375 
Q 5.515625 40.671875 11.671875 48.328125 
Q 17.828125 56 27.875 56 
Q 33.9375 56 38.28125 53.609375 
Q 42.625 51.21875 45.40625 46.390625 
L 45.40625 54.6875 
L 54.390625 54.6875 
z
" id="DejaVuSans-67"/>
      <path d="M 8.015625 75.875 
L 15.828125 75.875 
Q 23.140625 64.359375 26.78125 53.3125 
Q 30.421875 42.28125 30.421875 31.390625 
Q 30.421875 20.453125 26.78125 9.375 
Q 23.140625 -1.703125 15.828125 -13.1875 
L 8.015625 -13.1875 
Q 14.5 -2 17.703125 9.0625 
Q 20.90625 20.125 20.90625 31.390625 
Q 20.90625 42.671875 17.703125 53.65625 
Q 14.5 64.65625 8.015625 75.875 
" id="DejaVuSans-29"/>
     </defs>
     <g transform="translate(22.254687 120.46494)rotate(-90)scale(0.1 -0.1)">
      <use xlink:href="#DejaVuSans-4d"/>
      <use x="86.279297" xlink:href="#DejaVuSans-41"/>
      <use x="154.6875" xlink:href="#DejaVuSans-45"/>
      <use x="217.871094" xlink:href="#DejaVuSans-20"/>
      <use x="249.658203" xlink:href="#DejaVuSans-28"/>
      <use x="288.671875" xlink:href="#DejaVuSans-61"/>
      <use x="349.951172" xlink:href="#DejaVuSans-76"/>
      <use x="409.130859" xlink:href="#DejaVuSans-67"/>
      <use x="472.607422" xlink:href="#DejaVuSans-29"/>
     </g>
    </g>
   </g>
   <g id="line2d_12">
    <path clip-path="url(#p4aa0cc0c0d)" d="M 73.832727 80.965581 
L 77.145529 103.351717 
L 80.45833 114.27235 
L 83.771132 136.73553 
L 87.083933 127.672935 
L 90.396735 131.298026 
L 93.709536 134.16491 
L 97.022338 136.053509 
L 100.335139 137.613105 
L 103.647941 138.782576 
L 106.960742 139.571083 
L 110.273544 140.433627 
L 113.586345 141.11299 
L 116.899147 141.628992 
L 120.211948 142.047689 
L 123.52475 142.383649 
L 126.837551 142.637646 
L 130.150353 142.85418 
L 133.463154 143.033435 
L 136.775955 143.116478 
L 140.088757 143.317776 
L 143.401558 143.317402 
L 146.71436 143.28969 
L 150.027161 143.317754 
L 153.339963 143.438281 
L 156.652764 143.353985 
L 159.965566 143.304397 
L 163.278367 143.206081 
L 166.591169 143.108777 
L 169.90397 143.078279 
L 173.216772 143.005745 
L 176.529573 142.950668 
L 179.842375 142.887542 
L 183.155176 142.802266 
L 186.467978 142.623649 
L 189.780779 142.535073 
L 193.093581 142.393987 
L 196.406382 142.313158 
L 199.719184 142.246586 
L 203.031985 142.087068 
L 206.344787 141.919363 
L 209.657588 141.832863 
L 212.97039 141.70232 
L 216.283191 141.544177 
L 219.595993 141.428387 
L 222.908794 141.277735 
L 226.221596 141.105049 
L 229.534397 140.969748 
L 232.847199 140.832831 
L 236.16 140.670422 
L 239.472801 140.502638 
L 242.785603 140.338359 
L 246.098404 140.211552 
L 249.411206 140.079167 
L 252.724007 139.953642 
L 256.036809 139.769472 
L 259.34961 139.634025 
L 262.662412 139.477669 
L 265.975213 139.379013 
L 269.288015 139.247092 
L 272.600816 139.147462 
L 275.913618 139.007861 
L 279.226419 138.901935 
L 282.539221 138.774315 
L 285.852022 138.658606 
L 289.164824 138.555826 
L 292.477625 138.436043 
L 295.790427 138.365536 
L 299.103228 138.247645 
L 302.41603 138.124312 
L 305.728831 138.03214 
L 309.041633 137.918506 
L 312.354434 137.816717 
L 315.667236 137.700359 
L 318.980037 137.606549 
L 322.292839 137.51135 
L 325.60564 137.394714 
L 328.918442 137.311199 
L 332.231243 137.217591 
L 335.544045 137.108239 
L 338.856846 136.998086 
L 342.169647 136.895494 
L 345.482449 136.797072 
L 348.79525 136.700034 
L 352.108052 136.613064 
L 355.420853 136.514577 
L 358.733655 136.415509 
L 362.046456 136.329106 
L 365.359258 136.247614 
L 368.672059 136.125492 
L 371.984861 136.010269 
L 375.297662 135.924095 
L 378.610464 135.841463 
L 381.923265 135.74754 
L 385.236067 135.656017 
L 388.548868 135.573955 
L 391.86167 135.482216 
L 395.174471 135.391997 
L 398.487273 135.328899 
" style="fill:none;stroke:#1f77b4;stroke-linecap:square;stroke-width:1.5;"/>
   </g>
   <g id="line2d_13">
    <path clip-path="url(#p4aa0cc0c0d)" d="M 153.339963 148.293818 
L 153.339963 41.472 
" style="fill:none;stroke:#1f77b4;stroke-linecap:square;stroke-width:1.5;"/>
   </g>
   <g id="line2d_14">
    <path clip-path="url(#p4aa0cc0c0d)" d="M 73.832727 46.327537 
L 77.145529 73.513514 
L 80.45833 89.800397 
L 83.771132 100.632536 
L 87.083933 108.385249 
L 90.396735 114.426947 
L 93.709536 119.075283 
L 97.022338 122.585913 
L 100.335139 125.256122 
L 103.647941 127.908447 
L 106.960742 129.844775 
L 110.273544 131.745976 
L 113.586345 133.014418 
L 116.899147 134.29369 
L 120.211948 135.424939 
L 123.52475 136.361299 
L 126.837551 137.120358 
L 130.150353 137.785079 
L 133.463154 138.348141 
L 136.775955 138.829316 
L 140.088757 139.317247 
L 143.401558 139.714132 
L 146.71436 140.161157 
L 150.027161 140.478404 
L 153.339963 140.639662 
L 156.652764 140.868992 
L 159.965566 141.029859 
L 163.278367 141.219927 
L 166.591169 141.319731 
L 169.90397 141.411748 
L 173.216772 141.494677 
L 176.529573 141.552273 
L 179.842375 141.63076 
L 183.155176 141.692012 
L 186.467978 141.705771 
L 189.780779 141.72212 
L 193.093581 141.741936 
L 196.406382 141.732302 
L 199.719184 141.698518 
L 203.031985 141.648907 
L 206.344787 141.58471 
L 209.657588 141.536431 
L 212.97039 141.460607 
L 216.283191 141.467967 
L 219.595993 141.377997 
L 222.908794 141.308143 
L 226.221596 141.219125 
L 229.534397 141.142338 
L 232.847199 141.043679 
L 236.16 140.952703 
L 239.472801 140.872907 
L 242.785603 140.785755 
L 246.098404 140.670869 
L 249.411206 140.559796 
L 252.724007 140.459949 
L 256.036809 140.346679 
L 259.34961 140.229627 
L 262.662412 140.148168 
L 265.975213 140.006765 
L 269.288015 139.882451 
L 272.600816 139.759288 
L 275.913618 139.626481 
L 279.226419 139.523876 
L 282.539221 139.412886 
L 285.852022 139.290467 
L 289.164824 139.137668 
L 292.477625 139.000213 
L 295.790427 138.871361 
L 299.103228 138.75727 
L 302.41603 138.603381 
L 305.728831 138.451174 
L 309.041633 138.294085 
L 312.354434 138.143001 
L 315.667236 138.033715 
L 318.980037 137.888312 
L 322.292839 137.752422 
L 325.60564 137.6155 
L 328.918442 137.454658 
L 332.231243 137.303961 
L 335.544045 137.136223 
L 338.856846 137.000919 
L 342.169647 136.849597 
L 345.482449 136.712282 
L 348.79525 136.57471 
L 352.108052 136.443814 
L 355.420853 136.313571 
L 358.733655 136.152707 
L 362.046456 136.01368 
L 365.359258 135.863158 
L 368.672059 135.731783 
L 371.984861 135.61525 
L 375.297662 135.493927 
L 378.610464 135.361233 
L 381.923265 135.215013 
L 385.236067 135.081064 
L 388.548868 134.942573 
L 391.86167 134.794775 
L 395.174471 134.662316 
L 398.487273 134.526537 
" style="fill:none;stroke:#ff7f0e;stroke-linecap:square;stroke-width:1.5;"/>
   </g>
   <g id="line2d_15">
    <path clip-path="url(#p4aa0cc0c0d)" d="M 193.093581 148.293818 
L 193.093581 41.472 
" style="fill:none;stroke:#ff7f0e;stroke-linecap:square;stroke-width:1.5;"/>
   </g>
   <g id="patch_3">
    <path d="M 57.6 148.293818 
L 57.6 41.472 
" style="fill:none;stroke:#000000;stroke-linecap:square;stroke-linejoin:miter;stroke-width:0.8;"/>
   </g>
   <g id="patch_4">
    <path d="M 414.72 148.293818 
L 414.72 41.472 
" style="fill:none;stroke:#000000;stroke-linecap:square;stroke-linejoin:miter;stroke-width:0.8;"/>
   </g>
   <g id="patch_5">
    <path d="M 57.6 148.293818 
L 414.72 148.293818 
" style="fill:none;stroke:#000000;stroke-linecap:square;stroke-linejoin:miter;stroke-width:0.8;"/>
   </g>
   <g id="patch_6">
    <path d="M 57.6 41.472 
L 414.72 41.472 
" style="fill:none;stroke:#000000;stroke-linecap:square;stroke-linejoin:miter;stroke-width:0.8;"/>
   </g>
  </g>
  <g id="axes_2">
   <g id="patch_7">
    <path d="M 57.6 276.48 
L 414.72 276.48 
L 414.72 169.658182 
L 57.6 169.658182 
z
" style="fill:#ffffff;"/>
   </g>
   <g id="matplotlib.axis_3">
    <g id="xtick_8">
     <g id="line2d_16">
      <g>
       <use style="stroke:#000000;stroke-width:0.8;" x="67.207124" xlink:href="#mf06cfdf67b" y="276.48"/>
      </g>
     </g>
     <g id="text_6">
      <!-- 0 -->
      <g transform="translate(64.025874 291.078437)scale(0.1 -0.1)">
       <use xlink:href="#DejaVuSans-30"/>
      </g>
     </g>
    </g>
    <g id="xtick_9">
     <g id="line2d_17">
      <g>
       <use style="stroke:#000000;stroke-width:0.8;" x="133.463154" xlink:href="#mf06cfdf67b" y="276.48"/>
      </g>
     </g>
     <g id="text_7">
      <!-- 20 -->
      <defs>
       <path d="M 19.1875 8.296875 
L 53.609375 8.296875 
L 53.609375 0 
L 7.328125 0 
L 7.328125 8.296875 
Q 12.9375 14.109375 22.625 23.890625 
Q 32.328125 33.6875 34.8125 36.53125 
Q 39.546875 41.84375 41.421875 45.53125 
Q 43.3125 49.21875 43.3125 52.78125 
Q 43.3125 58.59375 39.234375 62.25 
Q 35.15625 65.921875 28.609375 65.921875 
Q 23.96875 65.921875 18.8125 64.3125 
Q 13.671875 62.703125 7.8125 59.421875 
L 7.8125 69.390625 
Q 13.765625 71.78125 18.9375 73 
Q 24.125 74.21875 28.421875 74.21875 
Q 39.75 74.21875 46.484375 68.546875 
Q 53.21875 62.890625 53.21875 53.421875 
Q 53.21875 48.921875 51.53125 44.890625 
Q 49.859375 40.875 45.40625 35.40625 
Q 44.1875 33.984375 37.640625 27.21875 
Q 31.109375 20.453125 19.1875 8.296875 
" id="DejaVuSans-32"/>
      </defs>
      <g transform="translate(127.100654 291.078437)scale(0.1 -0.1)">
       <use xlink:href="#DejaVuSans-32"/>
       <use x="63.623047" xlink:href="#DejaVuSans-30"/>
      </g>
     </g>
    </g>
    <g id="xtick_10">
     <g id="line2d_18">
      <g>
       <use style="stroke:#000000;stroke-width:0.8;" x="153.339963" xlink:href="#mf06cfdf67b" y="276.48"/>
      </g>
     </g>
     <g id="text_8">
      <!-- 26 -->
      <defs>
       <path d="M 33.015625 40.375 
Q 26.375 40.375 22.484375 35.828125 
Q 18.609375 31.296875 18.609375 23.390625 
Q 18.609375 15.53125 22.484375 10.953125 
Q 26.375 6.390625 33.015625 6.390625 
Q 39.65625 6.390625 43.53125 10.953125 
Q 47.40625 15.53125 47.40625 23.390625 
Q 47.40625 31.296875 43.53125 35.828125 
Q 39.65625 40.375 33.015625 40.375 
M 52.59375 71.296875 
L 52.59375 62.3125 
Q 48.875 64.0625 45.09375 64.984375 
Q 41.3125 65.921875 37.59375 65.921875 
Q 27.828125 65.921875 22.671875 59.328125 
Q 17.53125 52.734375 16.796875 39.40625 
Q 19.671875 43.65625 24.015625 45.921875 
Q 28.375 48.1875 33.59375 48.1875 
Q 44.578125 48.1875 50.953125 41.515625 
Q 57.328125 34.859375 57.328125 23.390625 
Q 57.328125 12.15625 50.6875 5.359375 
Q 44.046875 -1.421875 33.015625 -1.421875 
Q 20.359375 -1.421875 13.671875 8.265625 
Q 6.984375 17.96875 6.984375 36.375 
Q 6.984375 53.65625 15.1875 63.9375 
Q 23.390625 74.21875 37.203125 74.21875 
Q 40.921875 74.21875 44.703125 73.484375 
Q 48.484375 72.75 52.59375 71.296875 
" id="DejaVuSans-36"/>
      </defs>
      <g transform="translate(146.977463 291.078437)scale(0.1 -0.1)">
       <use xlink:href="#DejaVuSans-32"/>
       <use x="63.623047" xlink:href="#DejaVuSans-36"/>
      </g>
     </g>
    </g>
    <g id="xtick_11">
     <g id="line2d_19">
      <g>
       <use style="stroke:#000000;stroke-width:0.8;" x="193.093581" xlink:href="#mf06cfdf67b" y="276.48"/>
      </g>
     </g>
     <g id="text_9">
      <!-- 38 -->
      <defs>
       <path d="M 40.578125 39.3125 
Q 47.65625 37.796875 51.625 33 
Q 55.609375 28.21875 55.609375 21.1875 
Q 55.609375 10.40625 48.1875 4.484375 
Q 40.765625 -1.421875 27.09375 -1.421875 
Q 22.515625 -1.421875 17.65625 -0.515625 
Q 12.796875 0.390625 7.625 2.203125 
L 7.625 11.71875 
Q 11.71875 9.328125 16.59375 8.109375 
Q 21.484375 6.890625 26.8125 6.890625 
Q 36.078125 6.890625 40.9375 10.546875 
Q 45.796875 14.203125 45.796875 21.1875 
Q 45.796875 27.640625 41.28125 31.265625 
Q 36.765625 34.90625 28.71875 34.90625 
L 20.21875 34.90625 
L 20.21875 43.015625 
L 29.109375 43.015625 
Q 36.375 43.015625 40.234375 45.921875 
Q 44.09375 48.828125 44.09375 54.296875 
Q 44.09375 59.90625 40.109375 62.90625 
Q 36.140625 65.921875 28.71875 65.921875 
Q 24.65625 65.921875 20.015625 65.03125 
Q 15.375 64.15625 9.8125 62.3125 
L 9.8125 71.09375 
Q 15.4375 72.65625 20.34375 73.4375 
Q 25.25 74.21875 29.59375 74.21875 
Q 40.828125 74.21875 47.359375 69.109375 
Q 53.90625 64.015625 53.90625 55.328125 
Q 53.90625 49.265625 50.4375 45.09375 
Q 46.96875 40.921875 40.578125 39.3125 
" id="DejaVuSans-33"/>
      </defs>
      <g transform="translate(186.731081 291.078437)scale(0.1 -0.1)">
       <use xlink:href="#DejaVuSans-33"/>
       <use x="63.623047" xlink:href="#DejaVuSans-38"/>
      </g>
     </g>
    </g>
    <g id="xtick_12">
     <g id="line2d_20">
      <g>
       <use style="stroke:#000000;stroke-width:0.8;" x="265.975213" xlink:href="#mf06cfdf67b" y="276.48"/>
      </g>
     </g>
     <g id="text_10">
      <!-- 60 -->
      <g transform="translate(259.612713 291.078437)scale(0.1 -0.1)">
       <use xlink:href="#DejaVuSans-36"/>
       <use x="63.623047" xlink:href="#DejaVuSans-30"/>
      </g>
     </g>
    </g>
    <g id="xtick_13">
     <g id="line2d_21">
      <g>
       <use style="stroke:#000000;stroke-width:0.8;" x="332.231243" xlink:href="#mf06cfdf67b" y="276.48"/>
      </g>
     </g>
     <g id="text_11">
      <!-- 80 -->
      <g transform="translate(325.868743 291.078437)scale(0.1 -0.1)">
       <use xlink:href="#DejaVuSans-38"/>
       <use x="63.623047" xlink:href="#DejaVuSans-30"/>
      </g>
     </g>
    </g>
    <g id="xtick_14">
     <g id="line2d_22">
      <g>
       <use style="stroke:#000000;stroke-width:0.8;" x="398.487273" xlink:href="#mf06cfdf67b" y="276.48"/>
      </g>
     </g>
     <g id="text_12">
      <!-- 100 -->
      <defs>
       <path d="M 12.40625 8.296875 
L 28.515625 8.296875 
L 28.515625 63.921875 
L 10.984375 60.40625 
L 10.984375 69.390625 
L 28.421875 72.90625 
L 38.28125 72.90625 
L 38.28125 8.296875 
L 54.390625 8.296875 
L 54.390625 0 
L 12.40625 0 
z
" id="DejaVuSans-31"/>
      </defs>
      <g transform="translate(388.943523 291.078437)scale(0.1 -0.1)">
       <use xlink:href="#DejaVuSans-31"/>
       <use x="63.623047" xlink:href="#DejaVuSans-30"/>
       <use x="127.246094" xlink:href="#DejaVuSans-30"/>
      </g>
     </g>
    </g>
   </g>
   <g id="matplotlib.axis_4">
    <g id="ytick_5">
     <g id="line2d_23">
      <g>
       <use style="stroke:#000000;stroke-width:0.8;" x="57.6" xlink:href="#ma26cd1d9f2" y="265.977886"/>
      </g>
     </g>
     <g id="text_13">
      <!-- 1.0 -->
      <g transform="translate(34.696875 269.777105)scale(0.1 -0.1)">
       <use xlink:href="#DejaVuSans-31"/>
       <use x="63.623047" xlink:href="#DejaVuSans-2e"/>
       <use x="95.410156" xlink:href="#DejaVuSans-30"/>
      </g>
     </g>
    </g>
    <g id="ytick_6">
     <g id="line2d_24">
      <g>
       <use style="stroke:#000000;stroke-width:0.8;" x="57.6" xlink:href="#ma26cd1d9f2" y="226.803491"/>
      </g>
     </g>
     <g id="text_14">
      <!-- 1.1 -->
      <g transform="translate(34.696875 230.60271)scale(0.1 -0.1)">
       <use xlink:href="#DejaVuSans-31"/>
       <use x="63.623047" xlink:href="#DejaVuSans-2e"/>
       <use x="95.410156" xlink:href="#DejaVuSans-31"/>
      </g>
     </g>
    </g>
    <g id="ytick_7">
     <g id="line2d_25">
      <g>
       <use style="stroke:#000000;stroke-width:0.8;" x="57.6" xlink:href="#ma26cd1d9f2" y="187.629096"/>
      </g>
     </g>
     <g id="text_15">
      <!-- 1.2 -->
      <g transform="translate(34.696875 191.428315)scale(0.1 -0.1)">
       <use xlink:href="#DejaVuSans-31"/>
       <use x="63.623047" xlink:href="#DejaVuSans-2e"/>
       <use x="95.410156" xlink:href="#DejaVuSans-32"/>
      </g>
     </g>
    </g>
    <g id="text_16">
     <!-- RMSE (avg) -->
     <defs>
      <path d="M 44.390625 34.1875 
Q 47.5625 33.109375 50.5625 29.59375 
Q 53.5625 26.078125 56.59375 19.921875 
L 66.609375 0 
L 56 0 
L 46.6875 18.703125 
Q 43.0625 26.03125 39.671875 28.421875 
Q 36.28125 30.8125 30.421875 30.8125 
L 19.671875 30.8125 
L 19.671875 0 
L 9.8125 0 
L 9.8125 72.90625 
L 32.078125 72.90625 
Q 44.578125 72.90625 50.734375 67.671875 
Q 56.890625 62.453125 56.890625 51.90625 
Q 56.890625 45.015625 53.6875 40.46875 
Q 50.484375 35.9375 44.390625 34.1875 
M 19.671875 64.796875 
L 19.671875 38.921875 
L 32.078125 38.921875 
Q 39.203125 38.921875 42.84375 42.21875 
Q 46.484375 45.515625 46.484375 51.90625 
Q 46.484375 58.296875 42.84375 61.546875 
Q 39.203125 64.796875 32.078125 64.796875 
z
" id="DejaVuSans-52"/>
      <path d="M 53.515625 70.515625 
L 53.515625 60.890625 
Q 47.90625 63.578125 42.921875 64.890625 
Q 37.9375 66.21875 33.296875 66.21875 
Q 25.25 66.21875 20.875 63.09375 
Q 16.5 59.96875 16.5 54.203125 
Q 16.5 49.359375 19.40625 46.890625 
Q 22.3125 44.4375 30.421875 42.921875 
L 36.375 41.703125 
Q 47.40625 39.59375 52.65625 34.296875 
Q 57.90625 29 57.90625 20.125 
Q 57.90625 9.515625 50.796875 4.046875 
Q 43.703125 -1.421875 29.984375 -1.421875 
Q 24.8125 -1.421875 18.96875 -0.25 
Q 13.140625 0.921875 6.890625 3.21875 
L 6.890625 13.375 
Q 12.890625 10.015625 18.65625 8.296875 
Q 24.421875 6.59375 29.984375 6.59375 
Q 38.421875 6.59375 43.015625 9.90625 
Q 47.609375 13.234375 47.609375 19.390625 
Q 47.609375 24.75 44.3125 27.78125 
Q 41.015625 30.8125 33.5 32.328125 
L 27.484375 33.5 
Q 16.453125 35.6875 11.515625 40.375 
Q 6.59375 45.0625 6.59375 53.421875 
Q 6.59375 63.09375 13.40625 68.65625 
Q 20.21875 74.21875 32.171875 74.21875 
Q 37.3125 74.21875 42.625 73.28125 
Q 47.953125 72.359375 53.515625 70.515625 
" id="DejaVuSans-53"/>
     </defs>
     <g transform="translate(28.617187 251.879247)rotate(-90)scale(0.1 -0.1)">
      <use xlink:href="#DejaVuSans-52"/>
      <use x="69.482422" xlink:href="#DejaVuSans-4d"/>
      <use x="155.761719" xlink:href="#DejaVuSans-53"/>
      <use x="219.238281" xlink:href="#DejaVuSans-45"/>
      <use x="282.421875" xlink:href="#DejaVuSans-20"/>
      <use x="314.208984" xlink:href="#DejaVuSans-28"/>
      <use x="353.222656" xlink:href="#DejaVuSans-61"/>
      <use x="414.501953" xlink:href="#DejaVuSans-76"/>
      <use x="473.681641" xlink:href="#DejaVuSans-67"/>
      <use x="537.158203" xlink:href="#DejaVuSans-29"/>
     </g>
    </g>
   </g>
   <g id="line2d_26">
    <path clip-path="url(#p1c81ef1a87)" d="M 73.832727 206.502167 
L 77.145529 231.998856 
L 80.45833 243.385561 
L 83.771132 260.349594 
L 87.083933 256.510879 
L 90.396735 260.038667 
L 93.709536 262.692564 
L 97.022338 264.678316 
L 100.335139 266.086311 
L 103.647941 267.226252 
L 106.960742 267.987955 
L 110.273544 268.778183 
L 113.586345 269.477629 
L 116.899147 269.971795 
L 120.211948 270.395707 
L 123.52475 270.695458 
L 126.837551 270.891834 
L 130.150353 271.148238 
L 133.463154 271.28785 
L 136.775955 271.401501 
L 140.088757 271.521854 
L 143.401558 271.528917 
L 146.71436 271.495271 
L 150.027161 271.543458 
L 153.339963 271.624463 
L 156.652764 271.562724 
L 159.965566 271.523856 
L 163.278367 271.479164 
L 166.591169 271.421124 
L 169.90397 271.382014 
L 173.216772 271.332124 
L 176.529573 271.290347 
L 179.842375 271.247891 
L 183.155176 271.18808 
L 186.467978 271.059256 
L 189.780779 270.986488 
L 193.093581 270.905999 
L 196.406382 270.855192 
L 199.719184 270.805882 
L 203.031985 270.712561 
L 206.344787 270.607267 
L 209.657588 270.542533 
L 212.97039 270.457867 
L 216.283191 270.360357 
L 219.595993 270.289461 
L 222.908794 270.183445 
L 226.221596 270.061198 
L 229.534397 269.964843 
L 232.847199 269.865049 
L 236.16 269.773352 
L 239.472801 269.652095 
L 242.785603 269.545092 
L 246.098404 269.460482 
L 249.411206 269.357747 
L 252.724007 269.273615 
L 256.036809 269.166543 
L 259.34961 269.087032 
L 262.662412 268.990174 
L 265.975213 268.917169 
L 269.288015 268.818626 
L 272.600816 268.748293 
L 275.913618 268.646564 
L 279.226419 268.583129 
L 282.539221 268.490375 
L 285.852022 268.417507 
L 289.164824 268.344177 
L 292.477625 268.260408 
L 295.790427 268.202863 
L 299.103228 268.126784 
L 302.41603 268.038864 
L 305.728831 267.963681 
L 309.041633 267.878282 
L 312.354434 267.795539 
L 315.667236 267.716729 
L 318.980037 267.655516 
L 322.292839 267.58699 
L 325.60564 267.504564 
L 328.918442 267.434049 
L 332.231243 267.373348 
L 335.544045 267.300362 
L 338.856846 267.221442 
L 342.169647 267.153996 
L 345.482449 267.094081 
L 348.79525 267.024785 
L 352.108052 266.952384 
L 355.420853 266.888153 
L 358.733655 266.808813 
L 362.046456 266.746274 
L 365.359258 266.696361 
L 368.672059 266.618548 
L 371.984861 266.538626 
L 375.297662 266.484479 
L 378.610464 266.424014 
L 381.923265 266.353333 
L 385.236067 266.297552 
L 388.548868 266.237562 
L 391.86167 266.174555 
L 395.174471 266.108155 
L 398.487273 266.061612 
" style="fill:none;stroke:#1f77b4;stroke-linecap:square;stroke-width:1.5;"/>
   </g>
   <g id="line2d_27">
    <path clip-path="url(#p1c81ef1a87)" d="M 153.339963 276.48 
L 153.339963 169.658182 
" style="fill:none;stroke:#1f77b4;stroke-linecap:square;stroke-width:1.5;"/>
   </g>
   <g id="line2d_28">
    <path clip-path="url(#p1c81ef1a87)" d="M 73.832727 174.513719 
L 77.145529 204.74996 
L 80.45833 221.717988 
L 83.771132 232.459668 
L 87.083933 240.127911 
L 90.396735 245.818035 
L 93.709536 250.189036 
L 97.022338 253.568601 
L 100.335139 256.068539 
L 103.647941 258.384853 
L 106.960742 260.203008 
L 110.273544 261.812335 
L 113.586345 263.044948 
L 116.899147 264.228626 
L 120.211948 265.179551 
L 123.52475 265.989392 
L 126.837551 266.712789 
L 130.150353 267.368207 
L 133.463154 267.887447 
L 136.775955 268.346333 
L 140.088757 268.793866 
L 143.401558 269.158515 
L 146.71436 269.542382 
L 150.027161 269.846588 
L 153.339963 270.0525 
L 156.652764 270.25607 
L 159.965566 270.461452 
L 163.278367 270.649833 
L 166.591169 270.777405 
L 169.90397 270.879682 
L 173.216772 270.989684 
L 176.529573 271.074985 
L 179.842375 271.185948 
L 183.155176 271.248598 
L 186.467978 271.268815 
L 189.780779 271.272014 
L 193.093581 271.301455 
L 196.406382 271.298459 
L 199.719184 271.285716 
L 203.031985 271.275312 
L 206.344787 271.255119 
L 209.657588 271.245159 
L 212.97039 271.213982 
L 216.283191 271.215348 
L 219.595993 271.172479 
L 222.908794 271.120155 
L 226.221596 271.05597 
L 229.534397 271.02216 
L 232.847199 270.981477 
L 236.16 270.922781 
L 239.472801 270.867378 
L 242.785603 270.811223 
L 246.098404 270.719776 
L 249.411206 270.645337 
L 252.724007 270.570802 
L 256.036809 270.495891 
L 259.34961 270.401668 
L 262.662412 270.342925 
L 265.975213 270.229026 
L 269.288015 270.139066 
L 272.600816 270.065264 
L 275.913618 269.967578 
L 279.226419 269.885579 
L 282.539221 269.801024 
L 285.852022 269.732871 
L 289.164824 269.617868 
L 292.477625 269.527718 
L 295.790427 269.449601 
L 299.103228 269.37828 
L 302.41603 269.281214 
L 305.728831 269.173065 
L 309.041633 269.058736 
L 312.354434 268.950365 
L 315.667236 268.874272 
L 318.980037 268.783103 
L 322.292839 268.680718 
L 325.60564 268.590736 
L 328.918442 268.484744 
L 332.231243 268.379265 
L 335.544045 268.264839 
L 338.856846 268.172155 
L 342.169647 268.063973 
L 345.482449 267.966766 
L 348.79525 267.872425 
L 352.108052 267.775007 
L 355.420853 267.681467 
L 358.733655 267.574938 
L 362.046456 267.482795 
L 365.359258 267.376662 
L 368.672059 267.287472 
L 371.984861 267.204471 
L 375.297662 267.120219 
L 378.610464 267.034261 
L 381.923265 266.941217 
L 385.236067 266.851108 
L 388.548868 266.758588 
L 391.86167 266.658367 
L 395.174471 266.570313 
L 398.487273 266.485777 
" style="fill:none;stroke:#ff7f0e;stroke-linecap:square;stroke-width:1.5;"/>
   </g>
   <g id="line2d_29">
    <path clip-path="url(#p1c81ef1a87)" d="M 193.093581 276.48 
L 193.093581 169.658182 
" style="fill:none;stroke:#ff7f0e;stroke-linecap:square;stroke-width:1.5;"/>
   </g>
   <g id="patch_8">
    <path d="M 57.6 276.48 
L 57.6 169.658182 
" style="fill:none;stroke:#000000;stroke-linecap:square;stroke-linejoin:miter;stroke-width:0.8;"/>
   </g>
   <g id="patch_9">
    <path d="M 414.72 276.48 
L 414.72 169.658182 
" style="fill:none;stroke:#000000;stroke-linecap:square;stroke-linejoin:miter;stroke-width:0.8;"/>
   </g>
   <g id="patch_10">
    <path d="M 57.6 276.48 
L 414.72 276.48 
" style="fill:none;stroke:#000000;stroke-linecap:square;stroke-linejoin:miter;stroke-width:0.8;"/>
   </g>
   <g id="patch_11">
    <path d="M 57.6 169.658182 
L 414.72 169.658182 
" style="fill:none;stroke:#000000;stroke-linecap:square;stroke-linejoin:miter;stroke-width:0.8;"/>
   </g>
   <g id="legend_1">
    <g id="patch_12">
     <path d="M 103.165469 335.914182 
L 369.154531 335.914182 
Q 371.154531 335.914182 371.154531 333.914182 
L 371.154531 305.557932 
Q 371.154531 303.557932 369.154531 303.557932 
L 103.165469 303.557932 
Q 101.165469 303.557932 101.165469 305.557932 
L 101.165469 333.914182 
Q 101.165469 335.914182 103.165469 335.914182 
z
" style="fill:#ffffff;opacity:0.8;stroke:#cccccc;stroke-linejoin:miter;"/>
    </g>
    <g id="line2d_30">
     <path d="M 105.165469 311.656369 
L 125.165469 311.656369 
" style="fill:none;stroke:#1f77b4;stroke-linecap:square;stroke-width:1.5;"/>
    </g>
    <g id="line2d_31"/>
    <g id="text_17">
     <!-- User-based Collaborative Filtering (using MSD) -->
     <defs>
      <path d="M 8.6875 72.90625 
L 18.609375 72.90625 
L 18.609375 28.609375 
Q 18.609375 16.890625 22.84375 11.734375 
Q 27.09375 6.59375 36.625 6.59375 
Q 46.09375 6.59375 50.34375 11.734375 
Q 54.59375 16.890625 54.59375 28.609375 
L 54.59375 72.90625 
L 64.5 72.90625 
L 64.5 27.390625 
Q 64.5 13.140625 57.4375 5.859375 
Q 50.390625 -1.421875 36.625 -1.421875 
Q 22.796875 -1.421875 15.734375 5.859375 
Q 8.6875 13.140625 8.6875 27.390625 
z
" id="DejaVuSans-55"/>
      <path d="M 44.28125 53.078125 
L 44.28125 44.578125 
Q 40.484375 46.53125 36.375 47.5 
Q 32.28125 48.484375 27.875 48.484375 
Q 21.1875 48.484375 17.84375 46.4375 
Q 14.5 44.390625 14.5 40.28125 
Q 14.5 37.15625 16.890625 35.375 
Q 19.28125 33.59375 26.515625 31.984375 
L 29.59375 31.296875 
Q 39.15625 29.25 43.1875 25.515625 
Q 47.21875 21.78125 47.21875 15.09375 
Q 47.21875 7.46875 41.1875 3.015625 
Q 35.15625 -1.421875 24.609375 -1.421875 
Q 20.21875 -1.421875 15.453125 -0.5625 
Q 10.6875 0.296875 5.421875 2 
L 5.421875 11.28125 
Q 10.40625 8.6875 15.234375 7.390625 
Q 20.0625 6.109375 24.8125 6.109375 
Q 31.15625 6.109375 34.5625 8.28125 
Q 37.984375 10.453125 37.984375 14.40625 
Q 37.984375 18.0625 35.515625 20.015625 
Q 33.0625 21.96875 24.703125 23.78125 
L 21.578125 24.515625 
Q 13.234375 26.265625 9.515625 29.90625 
Q 5.8125 33.546875 5.8125 39.890625 
Q 5.8125 47.609375 11.28125 51.796875 
Q 16.75 56 26.8125 56 
Q 31.78125 56 36.171875 55.265625 
Q 40.578125 54.546875 44.28125 53.078125 
" id="DejaVuSans-73"/>
      <path d="M 56.203125 29.59375 
L 56.203125 25.203125 
L 14.890625 25.203125 
Q 15.484375 15.921875 20.484375 11.0625 
Q 25.484375 6.203125 34.421875 6.203125 
Q 39.59375 6.203125 44.453125 7.46875 
Q 49.3125 8.734375 54.109375 11.28125 
L 54.109375 2.78125 
Q 49.265625 0.734375 44.1875 -0.34375 
Q 39.109375 -1.421875 33.890625 -1.421875 
Q 20.796875 -1.421875 13.15625 6.1875 
Q 5.515625 13.8125 5.515625 26.8125 
Q 5.515625 40.234375 12.765625 48.109375 
Q 20.015625 56 32.328125 56 
Q 43.359375 56 49.78125 48.890625 
Q 56.203125 41.796875 56.203125 29.59375 
M 47.21875 32.234375 
Q 47.125 39.59375 43.09375 43.984375 
Q 39.0625 48.390625 32.421875 48.390625 
Q 24.90625 48.390625 20.390625 44.140625 
Q 15.875 39.890625 15.1875 32.171875 
z
" id="DejaVuSans-65"/>
      <path d="M 41.109375 46.296875 
Q 39.59375 47.171875 37.8125 47.578125 
Q 36.03125 48 33.890625 48 
Q 26.265625 48 22.1875 43.046875 
Q 18.109375 38.09375 18.109375 28.8125 
L 18.109375 0 
L 9.078125 0 
L 9.078125 54.6875 
L 18.109375 54.6875 
L 18.109375 46.1875 
Q 20.953125 51.171875 25.484375 53.578125 
Q 30.03125 56 36.53125 56 
Q 37.453125 56 38.578125 55.875 
Q 39.703125 55.765625 41.0625 55.515625 
z
" id="DejaVuSans-72"/>
      <path d="M 4.890625 31.390625 
L 31.203125 31.390625 
L 31.203125 23.390625 
L 4.890625 23.390625 
z
" id="DejaVuSans-2d"/>
      <path d="M 48.6875 27.296875 
Q 48.6875 37.203125 44.609375 42.84375 
Q 40.53125 48.484375 33.40625 48.484375 
Q 26.265625 48.484375 22.1875 42.84375 
Q 18.109375 37.203125 18.109375 27.296875 
Q 18.109375 17.390625 22.1875 11.75 
Q 26.265625 6.109375 33.40625 6.109375 
Q 40.53125 6.109375 44.609375 11.75 
Q 48.6875 17.390625 48.6875 27.296875 
M 18.109375 46.390625 
Q 20.953125 51.265625 25.265625 53.625 
Q 29.59375 56 35.59375 56 
Q 45.5625 56 51.78125 48.09375 
Q 58.015625 40.1875 58.015625 27.296875 
Q 58.015625 14.40625 51.78125 6.484375 
Q 45.5625 -1.421875 35.59375 -1.421875 
Q 29.59375 -1.421875 25.265625 0.953125 
Q 20.953125 3.328125 18.109375 8.203125 
L 18.109375 0 
L 9.078125 0 
L 9.078125 75.984375 
L 18.109375 75.984375 
z
" id="DejaVuSans-62"/>
      <path d="M 45.40625 46.390625 
L 45.40625 75.984375 
L 54.390625 75.984375 
L 54.390625 0 
L 45.40625 0 
L 45.40625 8.203125 
Q 42.578125 3.328125 38.25 0.953125 
Q 33.9375 -1.421875 27.875 -1.421875 
Q 17.96875 -1.421875 11.734375 6.484375 
Q 5.515625 14.40625 5.515625 27.296875 
Q 5.515625 40.1875 11.734375 48.09375 
Q 17.96875 56 27.875 56 
Q 33.9375 56 38.25 53.625 
Q 42.578125 51.265625 45.40625 46.390625 
M 14.796875 27.296875 
Q 14.796875 17.390625 18.875 11.75 
Q 22.953125 6.109375 30.078125 6.109375 
Q 37.203125 6.109375 41.296875 11.75 
Q 45.40625 17.390625 45.40625 27.296875 
Q 45.40625 37.203125 41.296875 42.84375 
Q 37.203125 48.484375 30.078125 48.484375 
Q 22.953125 48.484375 18.875 42.84375 
Q 14.796875 37.203125 14.796875 27.296875 
" id="DejaVuSans-64"/>
      <path d="M 64.40625 67.28125 
L 64.40625 56.890625 
Q 59.421875 61.53125 53.78125 63.8125 
Q 48.140625 66.109375 41.796875 66.109375 
Q 29.296875 66.109375 22.65625 58.46875 
Q 16.015625 50.828125 16.015625 36.375 
Q 16.015625 21.96875 22.65625 14.328125 
Q 29.296875 6.6875 41.796875 6.6875 
Q 48.140625 6.6875 53.78125 8.984375 
Q 59.421875 11.28125 64.40625 15.921875 
L 64.40625 5.609375 
Q 59.234375 2.09375 53.4375 0.328125 
Q 47.65625 -1.421875 41.21875 -1.421875 
Q 24.65625 -1.421875 15.125 8.703125 
Q 5.609375 18.84375 5.609375 36.375 
Q 5.609375 53.953125 15.125 64.078125 
Q 24.65625 74.21875 41.21875 74.21875 
Q 47.75 74.21875 53.53125 72.484375 
Q 59.328125 70.75 64.40625 67.28125 
" id="DejaVuSans-43"/>
      <path d="M 30.609375 48.390625 
Q 23.390625 48.390625 19.1875 42.75 
Q 14.984375 37.109375 14.984375 27.296875 
Q 14.984375 17.484375 19.15625 11.84375 
Q 23.34375 6.203125 30.609375 6.203125 
Q 37.796875 6.203125 41.984375 11.859375 
Q 46.1875 17.53125 46.1875 27.296875 
Q 46.1875 37.015625 41.984375 42.703125 
Q 37.796875 48.390625 30.609375 48.390625 
M 30.609375 56 
Q 42.328125 56 49.015625 48.375 
Q 55.71875 40.765625 55.71875 27.296875 
Q 55.71875 13.875 49.015625 6.21875 
Q 42.328125 -1.421875 30.609375 -1.421875 
Q 18.84375 -1.421875 12.171875 6.21875 
Q 5.515625 13.875 5.515625 27.296875 
Q 5.515625 40.765625 12.171875 48.375 
Q 18.84375 56 30.609375 56 
" id="DejaVuSans-6f"/>
      <path d="M 9.421875 75.984375 
L 18.40625 75.984375 
L 18.40625 0 
L 9.421875 0 
z
" id="DejaVuSans-6c"/>
      <path d="M 18.3125 70.21875 
L 18.3125 54.6875 
L 36.8125 54.6875 
L 36.8125 47.703125 
L 18.3125 47.703125 
L 18.3125 18.015625 
Q 18.3125 11.328125 20.140625 9.421875 
Q 21.96875 7.515625 27.59375 7.515625 
L 36.8125 7.515625 
L 36.8125 0 
L 27.59375 0 
Q 17.1875 0 13.234375 3.875 
Q 9.28125 7.765625 9.28125 18.015625 
L 9.28125 47.703125 
L 2.6875 47.703125 
L 2.6875 54.6875 
L 9.28125 54.6875 
L 9.28125 70.21875 
z
" id="DejaVuSans-74"/>
      <path d="M 9.421875 54.6875 
L 18.40625 54.6875 
L 18.40625 0 
L 9.421875 0 
z
M 9.421875 75.984375 
L 18.40625 75.984375 
L 18.40625 64.59375 
L 9.421875 64.59375 
z
" id="DejaVuSans-69"/>
      <path d="M 9.8125 72.90625 
L 51.703125 72.90625 
L 51.703125 64.59375 
L 19.671875 64.59375 
L 19.671875 43.109375 
L 48.578125 43.109375 
L 48.578125 34.8125 
L 19.671875 34.8125 
L 19.671875 0 
L 9.8125 0 
z
" id="DejaVuSans-46"/>
      <path d="M 54.890625 33.015625 
L 54.890625 0 
L 45.90625 0 
L 45.90625 32.71875 
Q 45.90625 40.484375 42.875 44.328125 
Q 39.84375 48.1875 33.796875 48.1875 
Q 26.515625 48.1875 22.3125 43.546875 
Q 18.109375 38.921875 18.109375 30.90625 
L 18.109375 0 
L 9.078125 0 
L 9.078125 54.6875 
L 18.109375 54.6875 
L 18.109375 46.1875 
Q 21.34375 51.125 25.703125 53.5625 
Q 30.078125 56 35.796875 56 
Q 45.21875 56 50.046875 50.171875 
Q 54.890625 44.34375 54.890625 33.015625 
" id="DejaVuSans-6e"/>
      <path d="M 8.5 21.578125 
L 8.5 54.6875 
L 17.484375 54.6875 
L 17.484375 21.921875 
Q 17.484375 14.15625 20.5 10.265625 
Q 23.53125 6.390625 29.59375 6.390625 
Q 36.859375 6.390625 41.078125 11.03125 
Q 45.3125 15.671875 45.3125 23.6875 
L 45.3125 54.6875 
L 54.296875 54.6875 
L 54.296875 0 
L 45.3125 0 
L 45.3125 8.40625 
Q 42.046875 3.421875 37.71875 1 
Q 33.40625 -1.421875 27.6875 -1.421875 
Q 18.265625 -1.421875 13.375 4.4375 
Q 8.5 10.296875 8.5 21.578125 
M 31.109375 56 
z
" id="DejaVuSans-75"/>
      <path d="M 19.671875 64.796875 
L 19.671875 8.109375 
L 31.59375 8.109375 
Q 46.6875 8.109375 53.6875 14.9375 
Q 60.6875 21.78125 60.6875 36.53125 
Q 60.6875 51.171875 53.6875 57.984375 
Q 46.6875 64.796875 31.59375 64.796875 
z
M 9.8125 72.90625 
L 30.078125 72.90625 
Q 51.265625 72.90625 61.171875 64.09375 
Q 71.09375 55.28125 71.09375 36.53125 
Q 71.09375 17.671875 61.125 8.828125 
Q 51.171875 0 30.078125 0 
L 9.8125 0 
z
" id="DejaVuSans-44"/>
     </defs>
     <g transform="translate(133.165469 315.156369)scale(0.1 -0.1)">
      <use xlink:href="#DejaVuSans-55"/>
      <use x="73.193359" xlink:href="#DejaVuSans-73"/>
      <use x="125.292969" xlink:href="#DejaVuSans-65"/>
      <use x="186.816406" xlink:href="#DejaVuSans-72"/>
      <use x="227.835938" xlink:href="#DejaVuSans-2d"/>
      <use x="263.919922" xlink:href="#DejaVuSans-62"/>
      <use x="327.396484" xlink:href="#DejaVuSans-61"/>
      <use x="388.675781" xlink:href="#DejaVuSans-73"/>
      <use x="440.775391" xlink:href="#DejaVuSans-65"/>
      <use x="502.298828" xlink:href="#DejaVuSans-64"/>
      <use x="565.775391" xlink:href="#DejaVuSans-20"/>
      <use x="597.5625" xlink:href="#DejaVuSans-43"/>
      <use x="667.386719" xlink:href="#DejaVuSans-6f"/>
      <use x="728.568359" xlink:href="#DejaVuSans-6c"/>
      <use x="756.351562" xlink:href="#DejaVuSans-6c"/>
      <use x="784.134766" xlink:href="#DejaVuSans-61"/>
      <use x="845.414062" xlink:href="#DejaVuSans-62"/>
      <use x="908.890625" xlink:href="#DejaVuSans-6f"/>
      <use x="970.072266" xlink:href="#DejaVuSans-72"/>
      <use x="1011.185547" xlink:href="#DejaVuSans-61"/>
      <use x="1072.464844" xlink:href="#DejaVuSans-74"/>
      <use x="1111.673828" xlink:href="#DejaVuSans-69"/>
      <use x="1139.457031" xlink:href="#DejaVuSans-76"/>
      <use x="1198.636719" xlink:href="#DejaVuSans-65"/>
      <use x="1260.160156" xlink:href="#DejaVuSans-20"/>
      <use x="1291.947266" xlink:href="#DejaVuSans-46"/>
      <use x="1349.357422" xlink:href="#DejaVuSans-69"/>
      <use x="1377.140625" xlink:href="#DejaVuSans-6c"/>
      <use x="1404.923828" xlink:href="#DejaVuSans-74"/>
      <use x="1444.132812" xlink:href="#DejaVuSans-65"/>
      <use x="1505.65625" xlink:href="#DejaVuSans-72"/>
      <use x="1546.769531" xlink:href="#DejaVuSans-69"/>
      <use x="1574.552734" xlink:href="#DejaVuSans-6e"/>
      <use x="1637.931641" xlink:href="#DejaVuSans-67"/>
      <use x="1701.408203" xlink:href="#DejaVuSans-20"/>
      <use x="1733.195312" xlink:href="#DejaVuSans-28"/>
      <use x="1772.208984" xlink:href="#DejaVuSans-75"/>
      <use x="1835.587891" xlink:href="#DejaVuSans-73"/>
      <use x="1887.6875" xlink:href="#DejaVuSans-69"/>
      <use x="1915.470703" xlink:href="#DejaVuSans-6e"/>
      <use x="1978.849609" xlink:href="#DejaVuSans-67"/>
      <use x="2042.326172" xlink:href="#DejaVuSans-20"/>
      <use x="2074.113281" xlink:href="#DejaVuSans-4d"/>
      <use x="2160.392578" xlink:href="#DejaVuSans-53"/>
      <use x="2223.869141" xlink:href="#DejaVuSans-44"/>
      <use x="2300.871094" xlink:href="#DejaVuSans-29"/>
     </g>
    </g>
    <g id="line2d_32">
     <path d="M 105.165469 326.334494 
L 125.165469 326.334494 
" style="fill:none;stroke:#ff7f0e;stroke-linecap:square;stroke-width:1.5;"/>
    </g>
    <g id="line2d_33"/>
    <g id="text_18">
     <!-- Item-based Collaborative Filtering (using MSD) -->
     <defs>
      <path d="M 9.8125 72.90625 
L 19.671875 72.90625 
L 19.671875 0 
L 9.8125 0 
z
" id="DejaVuSans-49"/>
      <path d="M 52 44.1875 
Q 55.375 50.25 60.0625 53.125 
Q 64.75 56 71.09375 56 
Q 79.640625 56 84.28125 50.015625 
Q 88.921875 44.046875 88.921875 33.015625 
L 88.921875 0 
L 79.890625 0 
L 79.890625 32.71875 
Q 79.890625 40.578125 77.09375 44.375 
Q 74.3125 48.1875 68.609375 48.1875 
Q 61.625 48.1875 57.5625 43.546875 
Q 53.515625 38.921875 53.515625 30.90625 
L 53.515625 0 
L 44.484375 0 
L 44.484375 32.71875 
Q 44.484375 40.625 41.703125 44.40625 
Q 38.921875 48.1875 33.109375 48.1875 
Q 26.21875 48.1875 22.15625 43.53125 
Q 18.109375 38.875 18.109375 30.90625 
L 18.109375 0 
L 9.078125 0 
L 9.078125 54.6875 
L 18.109375 54.6875 
L 18.109375 46.1875 
Q 21.1875 51.21875 25.484375 53.609375 
Q 29.78125 56 35.6875 56 
Q 41.65625 56 45.828125 52.96875 
Q 50 49.953125 52 44.1875 
" id="DejaVuSans-6d"/>
     </defs>
     <g transform="translate(133.165469 329.834494)scale(0.1 -0.1)">
      <use xlink:href="#DejaVuSans-49"/>
      <use x="29.492188" xlink:href="#DejaVuSans-74"/>
      <use x="68.701172" xlink:href="#DejaVuSans-65"/>
      <use x="130.224609" xlink:href="#DejaVuSans-6d"/>
      <use x="227.636719" xlink:href="#DejaVuSans-2d"/>
      <use x="263.720703" xlink:href="#DejaVuSans-62"/>
      <use x="327.197266" xlink:href="#DejaVuSans-61"/>
      <use x="388.476562" xlink:href="#DejaVuSans-73"/>
      <use x="440.576172" xlink:href="#DejaVuSans-65"/>
      <use x="502.099609" xlink:href="#DejaVuSans-64"/>
      <use x="565.576172" xlink:href="#DejaVuSans-20"/>
      <use x="597.363281" xlink:href="#DejaVuSans-43"/>
      <use x="667.1875" xlink:href="#DejaVuSans-6f"/>
      <use x="728.369141" xlink:href="#DejaVuSans-6c"/>
      <use x="756.152344" xlink:href="#DejaVuSans-6c"/>
      <use x="783.935547" xlink:href="#DejaVuSans-61"/>
      <use x="845.214844" xlink:href="#DejaVuSans-62"/>
      <use x="908.691406" xlink:href="#DejaVuSans-6f"/>
      <use x="969.873047" xlink:href="#DejaVuSans-72"/>
      <use x="1010.986328" xlink:href="#DejaVuSans-61"/>
      <use x="1072.265625" xlink:href="#DejaVuSans-74"/>
      <use x="1111.474609" xlink:href="#DejaVuSans-69"/>
      <use x="1139.257812" xlink:href="#DejaVuSans-76"/>
      <use x="1198.4375" xlink:href="#DejaVuSans-65"/>
      <use x="1259.960938" xlink:href="#DejaVuSans-20"/>
      <use x="1291.748047" xlink:href="#DejaVuSans-46"/>
      <use x="1349.158203" xlink:href="#DejaVuSans-69"/>
      <use x="1376.941406" xlink:href="#DejaVuSans-6c"/>
      <use x="1404.724609" xlink:href="#DejaVuSans-74"/>
      <use x="1443.933594" xlink:href="#DejaVuSans-65"/>
      <use x="1505.457031" xlink:href="#DejaVuSans-72"/>
      <use x="1546.570312" xlink:href="#DejaVuSans-69"/>
      <use x="1574.353516" xlink:href="#DejaVuSans-6e"/>
      <use x="1637.732422" xlink:href="#DejaVuSans-67"/>
      <use x="1701.208984" xlink:href="#DejaVuSans-20"/>
      <use x="1732.996094" xlink:href="#DejaVuSans-28"/>
      <use x="1772.009766" xlink:href="#DejaVuSans-75"/>
      <use x="1835.388672" xlink:href="#DejaVuSans-73"/>
      <use x="1887.488281" xlink:href="#DejaVuSans-69"/>
      <use x="1915.271484" xlink:href="#DejaVuSans-6e"/>
      <use x="1978.650391" xlink:href="#DejaVuSans-67"/>
      <use x="2042.126953" xlink:href="#DejaVuSans-20"/>
      <use x="2073.914062" xlink:href="#DejaVuSans-4d"/>
      <use x="2160.193359" xlink:href="#DejaVuSans-53"/>
      <use x="2223.669922" xlink:href="#DejaVuSans-44"/>
      <use x="2300.671875" xlink:href="#DejaVuSans-29"/>
     </g>
    </g>
   </g>
  </g>
  <g id="text_19">
   <!-- Problem 14: Impact of Number of Neighbors on Collaborative Filtering -->
   <defs>
    <path d="M 19.671875 64.796875 
L 19.671875 37.40625 
L 32.078125 37.40625 
Q 38.96875 37.40625 42.71875 40.96875 
Q 46.484375 44.53125 46.484375 51.125 
Q 46.484375 57.671875 42.71875 61.234375 
Q 38.96875 64.796875 32.078125 64.796875 
z
M 9.8125 72.90625 
L 32.078125 72.90625 
Q 44.34375 72.90625 50.609375 67.359375 
Q 56.890625 61.8125 56.890625 51.125 
Q 56.890625 40.328125 50.609375 34.8125 
Q 44.34375 29.296875 32.078125 29.296875 
L 19.671875 29.296875 
L 19.671875 0 
L 9.8125 0 
z
" id="DejaVuSans-50"/>
    <path d="M 37.796875 64.3125 
L 12.890625 25.390625 
L 37.796875 25.390625 
z
M 35.203125 72.90625 
L 47.609375 72.90625 
L 47.609375 25.390625 
L 58.015625 25.390625 
L 58.015625 17.1875 
L 47.609375 17.1875 
L 47.609375 0 
L 37.796875 0 
L 37.796875 17.1875 
L 4.890625 17.1875 
L 4.890625 26.703125 
z
" id="DejaVuSans-34"/>
    <path d="M 11.71875 12.40625 
L 22.015625 12.40625 
L 22.015625 0 
L 11.71875 0 
z
M 11.71875 51.703125 
L 22.015625 51.703125 
L 22.015625 39.3125 
L 11.71875 39.3125 
z
" id="DejaVuSans-3a"/>
    <path d="M 18.109375 8.203125 
L 18.109375 -20.796875 
L 9.078125 -20.796875 
L 9.078125 54.6875 
L 18.109375 54.6875 
L 18.109375 46.390625 
Q 20.953125 51.265625 25.265625 53.625 
Q 29.59375 56 35.59375 56 
Q 45.5625 56 51.78125 48.09375 
Q 58.015625 40.1875 58.015625 27.296875 
Q 58.015625 14.40625 51.78125 6.484375 
Q 45.5625 -1.421875 35.59375 -1.421875 
Q 29.59375 -1.421875 25.265625 0.953125 
Q 20.953125 3.328125 18.109375 8.203125 
M 48.6875 27.296875 
Q 48.6875 37.203125 44.609375 42.84375 
Q 40.53125 48.484375 33.40625 48.484375 
Q 26.265625 48.484375 22.1875 42.84375 
Q 18.109375 37.203125 18.109375 27.296875 
Q 18.109375 17.390625 22.1875 11.75 
Q 26.265625 6.109375 33.40625 6.109375 
Q 40.53125 6.109375 44.609375 11.75 
Q 48.6875 17.390625 48.6875 27.296875 
" id="DejaVuSans-70"/>
    <path d="M 48.78125 52.59375 
L 48.78125 44.1875 
Q 44.96875 46.296875 41.140625 47.34375 
Q 37.3125 48.390625 33.40625 48.390625 
Q 24.65625 48.390625 19.8125 42.84375 
Q 14.984375 37.3125 14.984375 27.296875 
Q 14.984375 17.28125 19.8125 11.734375 
Q 24.65625 6.203125 33.40625 6.203125 
Q 37.3125 6.203125 41.140625 7.25 
Q 44.96875 8.296875 48.78125 10.40625 
L 48.78125 2.09375 
Q 45.015625 0.34375 40.984375 -0.53125 
Q 36.96875 -1.421875 32.421875 -1.421875 
Q 20.0625 -1.421875 12.78125 6.34375 
Q 5.515625 14.109375 5.515625 27.296875 
Q 5.515625 40.671875 12.859375 48.328125 
Q 20.21875 56 33.015625 56 
Q 37.15625 56 41.109375 55.140625 
Q 45.0625 54.296875 48.78125 52.59375 
" id="DejaVuSans-63"/>
    <path d="M 37.109375 75.984375 
L 37.109375 68.5 
L 28.515625 68.5 
Q 23.6875 68.5 21.796875 66.546875 
Q 19.921875 64.59375 19.921875 59.515625 
L 19.921875 54.6875 
L 34.71875 54.6875 
L 34.71875 47.703125 
L 19.921875 47.703125 
L 19.921875 0 
L 10.890625 0 
L 10.890625 47.703125 
L 2.296875 47.703125 
L 2.296875 54.6875 
L 10.890625 54.6875 
L 10.890625 58.5 
Q 10.890625 67.625 15.140625 71.796875 
Q 19.390625 75.984375 28.609375 75.984375 
z
" id="DejaVuSans-66"/>
    <path d="M 9.8125 72.90625 
L 23.09375 72.90625 
L 55.421875 11.921875 
L 55.421875 72.90625 
L 64.984375 72.90625 
L 64.984375 0 
L 51.703125 0 
L 19.390625 60.984375 
L 19.390625 0 
L 9.8125 0 
z
" id="DejaVuSans-4e"/>
    <path d="M 54.890625 33.015625 
L 54.890625 0 
L 45.90625 0 
L 45.90625 32.71875 
Q 45.90625 40.484375 42.875 44.328125 
Q 39.84375 48.1875 33.796875 48.1875 
Q 26.515625 48.1875 22.3125 43.546875 
Q 18.109375 38.921875 18.109375 30.90625 
L 18.109375 0 
L 9.078125 0 
L 9.078125 75.984375 
L 18.109375 75.984375 
L 18.109375 46.1875 
Q 21.34375 51.125 25.703125 53.5625 
Q 30.078125 56 35.796875 56 
Q 45.21875 56 50.046875 50.171875 
Q 54.890625 44.34375 54.890625 33.015625 
" id="DejaVuSans-68"/>
   </defs>
   <g transform="translate(20.065313 16.030125)scale(0.12 -0.12)">
    <use xlink:href="#DejaVuSans-50"/>
    <use x="60.287109" xlink:href="#DejaVuSans-72"/>
    <use x="101.369141" xlink:href="#DejaVuSans-6f"/>
    <use x="162.550781" xlink:href="#DejaVuSans-62"/>
    <use x="226.027344" xlink:href="#DejaVuSans-6c"/>
    <use x="253.810547" xlink:href="#DejaVuSans-65"/>
    <use x="315.333984" xlink:href="#DejaVuSans-6d"/>
    <use x="412.746094" xlink:href="#DejaVuSans-20"/>
    <use x="444.533203" xlink:href="#DejaVuSans-31"/>
    <use x="508.15625" xlink:href="#DejaVuSans-34"/>
    <use x="571.779297" xlink:href="#DejaVuSans-3a"/>
    <use x="605.470703" xlink:href="#DejaVuSans-20"/>
    <use x="637.257812" xlink:href="#DejaVuSans-49"/>
    <use x="666.75" xlink:href="#DejaVuSans-6d"/>
    <use x="764.162109" xlink:href="#DejaVuSans-70"/>
    <use x="827.638672" xlink:href="#DejaVuSans-61"/>
    <use x="888.917969" xlink:href="#DejaVuSans-63"/>
    <use x="943.898438" xlink:href="#DejaVuSans-74"/>
    <use x="983.107422" xlink:href="#DejaVuSans-20"/>
    <use x="1014.894531" xlink:href="#DejaVuSans-6f"/>
    <use x="1076.076172" xlink:href="#DejaVuSans-66"/>
    <use x="1111.28125" xlink:href="#DejaVuSans-20"/>
    <use x="1143.068359" xlink:href="#DejaVuSans-4e"/>
    <use x="1217.873047" xlink:href="#DejaVuSans-75"/>
    <use x="1281.251953" xlink:href="#DejaVuSans-6d"/>
    <use x="1378.664062" xlink:href="#DejaVuSans-62"/>
    <use x="1442.140625" xlink:href="#DejaVuSans-65"/>
    <use x="1503.664062" xlink:href="#DejaVuSans-72"/>
    <use x="1544.777344" xlink:href="#DejaVuSans-20"/>
    <use x="1576.564453" xlink:href="#DejaVuSans-6f"/>
    <use x="1637.746094" xlink:href="#DejaVuSans-66"/>
    <use x="1672.951172" xlink:href="#DejaVuSans-20"/>
    <use x="1704.738281" xlink:href="#DejaVuSans-4e"/>
    <use x="1779.542969" xlink:href="#DejaVuSans-65"/>
    <use x="1841.066406" xlink:href="#DejaVuSans-69"/>
    <use x="1868.849609" xlink:href="#DejaVuSans-67"/>
    <use x="1932.326172" xlink:href="#DejaVuSans-68"/>
    <use x="1995.705078" xlink:href="#DejaVuSans-62"/>
    <use x="2059.181641" xlink:href="#DejaVuSans-6f"/>
    <use x="2120.363281" xlink:href="#DejaVuSans-72"/>
    <use x="2161.476562" xlink:href="#DejaVuSans-73"/>
    <use x="2213.576172" xlink:href="#DejaVuSans-20"/>
    <use x="2245.363281" xlink:href="#DejaVuSans-6f"/>
    <use x="2306.544922" xlink:href="#DejaVuSans-6e"/>
    <use x="2369.923828" xlink:href="#DejaVuSans-20"/>
    <use x="2401.710938" xlink:href="#DejaVuSans-43"/>
    <use x="2471.535156" xlink:href="#DejaVuSans-6f"/>
    <use x="2532.716797" xlink:href="#DejaVuSans-6c"/>
    <use x="2560.5" xlink:href="#DejaVuSans-6c"/>
    <use x="2588.283203" xlink:href="#DejaVuSans-61"/>
    <use x="2649.5625" xlink:href="#DejaVuSans-62"/>
    <use x="2713.039062" xlink:href="#DejaVuSans-6f"/>
    <use x="2774.220703" xlink:href="#DejaVuSans-72"/>
    <use x="2815.333984" xlink:href="#DejaVuSans-61"/>
    <use x="2876.613281" xlink:href="#DejaVuSans-74"/>
    <use x="2915.822266" xlink:href="#DejaVuSans-69"/>
    <use x="2943.605469" xlink:href="#DejaVuSans-76"/>
    <use x="3002.785156" xlink:href="#DejaVuSans-65"/>
    <use x="3064.308594" xlink:href="#DejaVuSans-20"/>
    <use x="3096.095703" xlink:href="#DejaVuSans-46"/>
    <use x="3153.505859" xlink:href="#DejaVuSans-69"/>
    <use x="3181.289062" xlink:href="#DejaVuSans-6c"/>
    <use x="3209.072266" xlink:href="#DejaVuSans-74"/>
    <use x="3248.28125" xlink:href="#DejaVuSans-65"/>
    <use x="3309.804688" xlink:href="#DejaVuSans-72"/>
    <use x="3350.917969" xlink:href="#DejaVuSans-69"/>
    <use x="3378.701172" xlink:href="#DejaVuSans-6e"/>
    <use x="3442.080078" xlink:href="#DejaVuSans-67"/>
   </g>
  </g>
 </g>
 <defs>
  <clipPath id="p4aa0cc0c0d">
   <rect height="106.821818" width="357.12" x="57.6" y="41.472"/>
  </clipPath>
  <clipPath id="p1c81ef1a87">
   <rect height="106.821818" width="357.12" x="57.6" y="169.658182"/>
  </clipPath>
 </defs>
</svg>
